<?xml version="1.0" encoding="UTF-8" standalone="no"?>
<!DOCTYPE svg PUBLIC "-//W3C//DTD SVG 1.1//EN"
 "http://www.w3.org/Graphics/SVG/1.1/DTD/svg11.dtd">
<!-- Generated by graphviz version 5.0.0 (20220707.1540)
 -->
<!-- Title: UmlClassDiagram Pages: 1 -->
<svg width="969pt" height="1113pt"
 viewBox="0.00 0.00 969.26 1113.40" xmlns="http://www.w3.org/2000/svg" xmlns:xlink="http://www.w3.org/1999/xlink">
<g id="graph0" class="graph" transform="scale(1 1) rotate(0) translate(4 1109.4)">
<title>UmlClassDiagram</title>
<polygon fill="white" stroke="transparent" points="-4,4 -4,-1109.4 965.26,-1109.4 965.26,4 -4,4"/>
<!-- 1 -->
<g id="node1" class="node">
<title>1</title>
<polygon fill="#f2f2f2" stroke="black" points="400.53,-0.5 400.53,-167.7 560.73,-167.7 560.73,-0.5 400.53,-0.5"/>
<text text-anchor="middle" x="480.63" y="-151.1" font-family="Times,serif" font-size="14.00">&lt;&lt;Enum&gt;&gt;</text>
<text text-anchor="middle" x="480.63" y="-134.3" font-family="Times,serif" font-size="14.00">Status</text>
<text text-anchor="middle" x="480.63" y="-117.5" font-family="Times,serif" font-size="14.00">FreelanceMarketplace.sol</text>
<polyline fill="none" stroke="black" points="400.53,-109.3 560.73,-109.3 "/>
<text text-anchor="start" x="408.53" y="-92.7" font-family="Times,serif" font-size="14.00">none: 0</text>
<text text-anchor="start" x="408.53" y="-75.9" font-family="Times,serif" font-size="14.00">requested: 1</text>
<text text-anchor="start" x="408.53" y="-59.1" font-family="Times,serif" font-size="14.00">accepted: 2</text>
<text text-anchor="start" x="408.53" y="-42.3" font-family="Times,serif" font-size="14.00">submitted: 3</text>
<text text-anchor="start" x="408.53" y="-25.5" font-family="Times,serif" font-size="14.00">completed: 4</text>
<text text-anchor="start" x="408.53" y="-8.7" font-family="Times,serif" font-size="14.00">canceled: 5</text>
</g>
<!-- 0 -->
<g id="node4" class="node">
<title>0</title>
<polygon fill="#f2f2f2" stroke="black" points="39.46,-204.7 39.46,-833.5 921.8,-833.5 921.8,-204.7 39.46,-204.7"/>
<text text-anchor="middle" x="480.63" y="-816.9" font-family="Times,serif" font-size="14.00">FreelanceMarketplace</text>
<text text-anchor="middle" x="480.63" y="-800.1" font-family="Times,serif" font-size="14.00">FreelanceMarketplace.sol</text>
<polyline fill="none" stroke="black" points="39.46,-791.9 921.8,-791.9 "/>
<text text-anchor="start" x="47.46" y="-775.3" font-family="Times,serif" font-size="14.00">Private:</text>
<text text-anchor="start" x="47.46" y="-758.5" font-family="Times,serif" font-size="14.00"> &#160;&#160;fLTToken: FLTToken</text>
<text text-anchor="start" x="47.46" y="-741.7" font-family="Times,serif" font-size="14.00"> &#160;&#160;etherToken: Ether</text>
<text text-anchor="start" x="47.46" y="-724.9" font-family="Times,serif" font-size="14.00">Internal:</text>
<text text-anchor="start" x="47.46" y="-708.1" font-family="Times,serif" font-size="14.00"> &#160;&#160;TOKEN_PER_ETHER: uint</text>
<text text-anchor="start" x="47.46" y="-691.3" font-family="Times,serif" font-size="14.00">Public:</text>
<text text-anchor="start" x="47.46" y="-674.5" font-family="Times,serif" font-size="14.00"> &#160;&#160;name: string</text>
<text text-anchor="start" x="47.46" y="-657.7" font-family="Times,serif" font-size="14.00"> &#160;&#160;owner: address</text>
<text text-anchor="start" x="47.46" y="-640.9" font-family="Times,serif" font-size="14.00"> &#160;&#160;articlesCount: uint</text>
<text text-anchor="start" x="47.46" y="-624.1" font-family="Times,serif" font-size="14.00"> &#160;&#160;articles: mapping(string=&gt;Article)</text>
<text text-anchor="start" x="47.46" y="-607.3" font-family="Times,serif" font-size="14.00"> &#160;&#160;userTopics: mapping(address=&gt;string[])</text>
<text text-anchor="start" x="47.46" y="-590.5" font-family="Times,serif" font-size="14.00"> &#160;&#160;requestedTopics: mapping(uint=&gt;string)</text>
<text text-anchor="start" x="47.46" y="-573.7" font-family="Times,serif" font-size="14.00"> &#160;&#160;articleRequestsCount: uint</text>
<text text-anchor="start" x="47.46" y="-556.9" font-family="Times,serif" font-size="14.00"> &#160;&#160;articleRequests: mapping(string=&gt;ArticleRequest)</text>
<polyline fill="none" stroke="black" points="39.46,-548.7 921.8,-548.7 "/>
<text text-anchor="start" x="47.46" y="-532.1" font-family="Times,serif" font-size="14.00">Private:</text>
<text text-anchor="start" x="47.46" y="-515.3" font-family="Times,serif" font-size="14.00"> &#160;&#160;&#160;calculateReward(deadline: uint, submittedAt: uint, reward: uint): uint</text>
<text text-anchor="start" x="47.46" y="-498.5" font-family="Times,serif" font-size="14.00">Internal:</text>
<text text-anchor="start" x="47.46" y="-481.7" font-family="Times,serif" font-size="14.00"> &#160;&#160;&#160;getCurrentTime(): uint256</text>
<text text-anchor="start" x="47.46" y="-464.9" font-family="Times,serif" font-size="14.00">Public:</text>
<text text-anchor="start" x="47.46" y="-448.1" font-family="Times,serif" font-size="14.00"> &#160;&#160;&#160;&lt;&lt;event&gt;&gt; ArticleApproved(id: uint, Topic: string, reward: uint, client: address, writer: address, status: Status)</text>
<text text-anchor="start" x="47.46" y="-431.3" font-family="Times,serif" font-size="14.00"> &#160;&#160;&#160;&lt;&lt;event&gt;&gt; ArticleRequestCreated(id: uint, topic: string, reward: uint, client: address, deadline: uint, createdAt: uint)</text>
<text text-anchor="start" x="47.46" y="-414.5" font-family="Times,serif" font-size="14.00"> &#160;&#160;&#160;&lt;&lt;event&gt;&gt; ArticleRequestAccepted(requestId: uint, Topic: string, reward: uint, client: address, writer: address, status: Status)</text>
<text text-anchor="start" x="47.46" y="-397.7" font-family="Times,serif" font-size="14.00"> &#160;&#160;&#160;&lt;&lt;event&gt;&gt; ArticleSubmitted(articleId: uint, topic: string, reward: uint, deadline: uint, content: string, author: address, client: address, submittedAt: uint)</text>
<text text-anchor="start" x="47.46" y="-380.9" font-family="Times,serif" font-size="14.00"> &#160;&#160;&#160;&lt;&lt;event&gt;&gt; ArticleAccepted(articleId: uint, Topic: string, reward: uint, deadline: uint, author: address, client: address)</text>
<text text-anchor="start" x="47.46" y="-364.1" font-family="Times,serif" font-size="14.00"> &#160;&#160;&#160;&lt;&lt;event&gt;&gt; FLTPurchased(buyer: address, etherAmount: uint, FLTAmount: uint, timestamp: uint)</text>
<text text-anchor="start" x="47.46" y="-347.3" font-family="Times,serif" font-size="14.00"> &#160;&#160;&#160;constructor(_fltToken: FLTToken, _etherToken: Ether)</text>
<text text-anchor="start" x="47.46" y="-330.5" font-family="Times,serif" font-size="14.00"> &#160;&#160;&#160;getAllUserTopics(user: address): string[]</text>
<text text-anchor="start" x="47.46" y="-313.7" font-family="Times,serif" font-size="14.00"> &#160;&#160;&#160;getAllUserArticles(user: address): Article[]</text>
<text text-anchor="start" x="47.46" y="-296.9" font-family="Times,serif" font-size="14.00"> &#160;&#160;&#160;getLastNRequestedArticles(n: uint): ArticleRequest[]</text>
<text text-anchor="start" x="47.46" y="-280.1" font-family="Times,serif" font-size="14.00"> &#160;&#160;&#160;requestArticle(topic: string, deadline: uint256, reward: uint256)</text>
<text text-anchor="start" x="47.46" y="-263.3" font-family="Times,serif" font-size="14.00"> &#160;&#160;&#160;acceptArticleRequest(topic: string)</text>
<text text-anchor="start" x="47.46" y="-246.5" font-family="Times,serif" font-size="14.00"> &#160;&#160;&#160;submitArticle(topic: string, wordCount: uint, content: string)</text>
<text text-anchor="start" x="47.46" y="-229.7" font-family="Times,serif" font-size="14.00"> &#160;&#160;&#160;approveArticle(topic: string)</text>
<text text-anchor="start" x="47.46" y="-212.9" font-family="Times,serif" font-size="14.00"> &#160;&#160;&#160;purchaseFLT(_etherAmount: uint)</text>
</g>
<!-- 1&#45;&gt;0 -->
<g id="edge3" class="edge">
<title>1&#45;&gt;0</title>
<path fill="none" stroke="black" d="M475.19,-167.82C475.01,-175.66 474.85,-183.89 474.71,-192.42"/>
<polygon fill="black" stroke="black" points="474.71,-192.68 478.61,-198.74 474.52,-204.68 470.61,-198.62 474.71,-192.68"/>
</g>
<!-- 2 -->
<g id="node2" class="node">
<title>2</title>
<polygon fill="#f2f2f2" stroke="black" points="311.53,-870.5 311.53,-1104.9 471.73,-1104.9 471.73,-870.5 311.53,-870.5"/>
<text text-anchor="middle" x="391.63" y="-1088.3" font-family="Times,serif" font-size="14.00">&lt;&lt;Struct&gt;&gt;</text>
<text text-anchor="middle" x="391.63" y="-1071.5" font-family="Times,serif" font-size="14.00">Article</text>
<text text-anchor="middle" x="391.63" y="-1054.7" font-family="Times,serif" font-size="14.00">FreelanceMarketplace.sol</text>
<polyline fill="none" stroke="black" points="311.53,-1046.5 471.73,-1046.5 "/>
<text text-anchor="start" x="319.53" y="-1029.9" font-family="Times,serif" font-size="14.00">id: uint</text>
<text text-anchor="start" x="319.53" y="-1013.1" font-family="Times,serif" font-size="14.00">topic: string</text>
<text text-anchor="start" x="319.53" y="-996.3" font-family="Times,serif" font-size="14.00">author: address</text>
<text text-anchor="start" x="319.53" y="-979.5" font-family="Times,serif" font-size="14.00">owner: address</text>
<text text-anchor="start" x="319.53" y="-962.7" font-family="Times,serif" font-size="14.00">reward: uint</text>
<text text-anchor="start" x="319.53" y="-945.9" font-family="Times,serif" font-size="14.00">deadline: uint</text>
<text text-anchor="start" x="319.53" y="-929.1" font-family="Times,serif" font-size="14.00">createdAt: uint</text>
<text text-anchor="start" x="319.53" y="-912.3" font-family="Times,serif" font-size="14.00">content: string</text>
<text text-anchor="start" x="319.53" y="-895.5" font-family="Times,serif" font-size="14.00">wordCount: uint</text>
<text text-anchor="start" x="319.53" y="-878.7" font-family="Times,serif" font-size="14.00">status: Status</text>
</g>
<!-- 2&#45;&gt;1 -->
<g id="edge1" class="edge">
<title>2&#45;&gt;1</title>
<path fill="none" stroke="black" stroke-dasharray="5,2" d="M311.51,-978.14C225.5,-964.19 92.85,-927.88 30.63,-834 -8.03,-775.67 -12.05,-259.65 30.63,-204.2 74.16,-147.65 271.79,-112.44 390.18,-96.04"/>
<polygon fill="black" stroke="black" points="390.89,-99.48 400.33,-94.66 389.95,-92.54 390.89,-99.48"/>
</g>
<!-- 2&#45;&gt;0 -->
<g id="edge4" class="edge">
<title>2&#45;&gt;0</title>
<path fill="none" stroke="black" d="M419.73,-870.48C421.4,-862.36 423.11,-853.98 424.84,-845.4"/>
<polygon fill="black" stroke="black" points="424.85,-845.36 422.11,-838.69 427.22,-833.59 429.95,-840.27 424.85,-845.36"/>
</g>
<!-- 3 -->
<g id="node3" class="node">
<title>3</title>
<polygon fill="#f2f2f2" stroke="black" points="489.53,-887.3 489.53,-1088.1 649.73,-1088.1 649.73,-887.3 489.53,-887.3"/>
<text text-anchor="middle" x="569.63" y="-1071.5" font-family="Times,serif" font-size="14.00">&lt;&lt;Struct&gt;&gt;</text>
<text text-anchor="middle" x="569.63" y="-1054.7" font-family="Times,serif" font-size="14.00">ArticleRequest</text>
<text text-anchor="middle" x="569.63" y="-1037.9" font-family="Times,serif" font-size="14.00">FreelanceMarketplace.sol</text>
<polyline fill="none" stroke="black" points="489.53,-1029.7 649.73,-1029.7 "/>
<text text-anchor="start" x="497.53" y="-1013.1" font-family="Times,serif" font-size="14.00">id: uint</text>
<text text-anchor="start" x="497.53" y="-996.3" font-family="Times,serif" font-size="14.00">topic: string</text>
<text text-anchor="start" x="497.53" y="-979.5" font-family="Times,serif" font-size="14.00">client: address</text>
<text text-anchor="start" x="497.53" y="-962.7" font-family="Times,serif" font-size="14.00">writer: address</text>
<text text-anchor="start" x="497.53" y="-945.9" font-family="Times,serif" font-size="14.00">reward: uint256</text>
<text text-anchor="start" x="497.53" y="-929.1" font-family="Times,serif" font-size="14.00">deadline: uint256</text>
<text text-anchor="start" x="497.53" y="-912.3" font-family="Times,serif" font-size="14.00">createdAt: uint</text>
<text text-anchor="start" x="497.53" y="-895.5" font-family="Times,serif" font-size="14.00">status: Status</text>
</g>
<!-- 3&#45;&gt;1 -->
<g id="edge2" class="edge">
<title>3&#45;&gt;1</title>
<path fill="none" stroke="black" stroke-dasharray="5,2" d="M649.75,-978.14C735.76,-964.19 868.41,-927.88 930.63,-834 969.29,-775.67 973.31,-259.65 930.63,-204.2 887.1,-147.65 689.48,-112.44 571.08,-96.04"/>
<polygon fill="black" stroke="black" points="571.31,-92.54 560.93,-94.66 570.37,-99.48 571.31,-92.54"/>
</g>
<!-- 3&#45;&gt;0 -->
<g id="edge5" class="edge">
<title>3&#45;&gt;0</title>
<path fill="none" stroke="black" d="M556.28,-887.11C554.04,-874.1 551.6,-860.24 549.02,-845.83"/>
<polygon fill="black" stroke="black" points="548.94,-845.4 543.94,-840.21 546.81,-833.59 551.81,-838.79 548.94,-845.4"/>
</g>
<!-- 0&#45;&gt;1 -->
<g id="edge6" class="edge">
<title>0&#45;&gt;1</title>
<path fill="none" stroke="black" stroke-dasharray="5,2" d="M486.74,-204.68C486.61,-195.47 486.46,-186.56 486.29,-178.03"/>
<polygon fill="black" stroke="black" points="489.78,-177.74 486.07,-167.82 482.78,-177.89 489.78,-177.74"/>
</g>
<!-- 0&#45;&gt;2 -->
<g id="edge7" class="edge">
<title>0&#45;&gt;2</title>
<path fill="none" stroke="black" d="M414.45,-833.59C412.8,-842.73 411.19,-851.69 409.65,-860.39"/>
<polygon fill="black" stroke="black" points="406.16,-860.02 407.87,-870.48 413.05,-861.24 406.16,-860.02"/>
</g>
<!-- 0&#45;&gt;3 -->
<g id="edge8" class="edge">
<title>0&#45;&gt;3</title>
<path fill="none" stroke="black" d="M534.04,-833.59C537.08,-848.74 540.06,-863.38 542.92,-877.2"/>
<polygon fill="black" stroke="black" points="539.52,-878.04 544.99,-887.11 546.37,-876.61 539.52,-878.04"/>
</g>
</g>
</svg>
